<svg xmlns="http://www.w3.org/2000/svg" viewBox="0 0 512 512" style="enable-background:new 0 0 512 512" xml:space="preserve">
<path style="fill:#ffdc64" d="M436.044 17.442H102.963c-14.916 0-27.007 12.091-27.007 27.007v432.105c0-14.916 12.091-27.007 27.007-27.007h333.081V17.442z"/><path style="fill:#faebc8" d="M421.161 476.554c0-10.18 5.669-19.466 14.883-27.007H104.491c-14.624 0-27.731 10.95-28.496 25.554-.816 15.575 11.571 28.459 26.968 28.459h333.081c-9.213-7.54-14.883-16.826-14.883-27.006z"/><path style="fill:#ff6991" d="M201.987 98.462 174.98 80.457l-27.007 18.004v-81.02a9.003 9.003 0 0 1 9.002-9.002h36.009a9.003 9.003 0 0 1 9.002 9.002v81.021z"/><path style="fill:#ffc850" d="M111.965 314.514V17.442h-9.002c-14.916 0-27.007 12.091-27.007 27.007v432.105c0-14.916 12.091-27.007 27.007-27.007h333.081V422.54H219.991c-59.661.001-108.026-48.365-108.026-108.026z"/><path style="fill:#ff507d" d="M183.982 8.44h-27.007a9.003 9.003 0 0 0-9.002 9.002v81.02l27.007-18.004V17.442a9.002 9.002 0 0 1 9.002-9.002z"/><path d="M438.862 457.505a8.443 8.443 0 0 0 5.622-7.958V17.442a8.44 8.44 0 0 0-8.44-8.44H208.238C205.259 3.64 199.542 0 192.985 0h-36.009c-6.557 0-12.275 3.64-15.253 9.002h-38.76c-19.545 0-35.446 15.901-35.446 35.446v432.105c0 19.545 15.901 35.446 35.446 35.446h333.081a8.44 8.44 0 0 0 2.818-16.398c-4.95-4.444-10.123-11.011-10.123-19.049s5.173-14.603 10.123-19.047zM156.976 16.879h36.009c.311 0 .563.253.563.563v65.25l-13.886-9.258a8.431 8.431 0 0 0-9.362 0l-13.886 9.258V17.474l.001-.033v-.007a.562.562 0 0 1 .561-.555zm259.897 478.242h-313.91c-10.238 0-18.567-8.329-18.567-18.567s8.329-18.567 18.567-18.567h313.91c-3.308 5.873-5.012 12.121-5.012 18.567 0 6.445 1.702 12.694 5.012 18.567zm10.731-54.013H102.963a35.237 35.237 0 0 0-18.567 5.267V44.448c0-10.238 8.329-18.567 18.567-18.567h36.571v72.58a8.436 8.436 0 0 0 4.457 7.44 8.434 8.434 0 0 0 8.663-.419l22.325-14.884 22.325 14.884a8.432 8.432 0 0 0 8.664.419 8.438 8.438 0 0 0 4.456-7.44v-72.58h217.178v415.227z"/><path d="M111.965 99.026a8.44 8.44 0 0 0-8.44 8.44v306.073a8.44 8.44 0 0 0 16.88 0V107.466a8.441 8.441 0 0 0-8.44-8.44zM111.965 45.011a8.44 8.44 0 0 0-8.44 8.44v18.003a8.44 8.44 0 0 0 16.88 0V53.451a8.441 8.441 0 0 0-8.44-8.44zM201.987 135.033a8.44 8.44 0 0 0 0 16.88h144.035a8.44 8.44 0 0 0 0-16.88H201.987zM319.015 279.068h-90.022a8.44 8.44 0 0 0 0 16.88h90.022a8.44 8.44 0 0 0 0-16.88zM319.015 315.077h-90.022a8.44 8.44 0 0 0 0 16.88h90.022a8.44 8.44 0 0 0 0-16.88zM175.543 179.481a8.44 8.44 0 0 0 8.44 8.44h180.044a8.44 8.44 0 0 0 0-16.88H183.982a8.44 8.44 0 0 0-8.439 8.44z"/></svg>