<?xml version="1.0" encoding="UTF-8" standalone="no"?>
<!DOCTYPE svg PUBLIC "-//W3C//DTD SVG 1.1//EN" "http://www.w3.org/Graphics/SVG/1.1/DTD/svg11.dtd">
<svg width="100" height="100" viewBox="0 0 200 200" version="1.1" xmlns="http://www.w3.org/2000/svg" xmlns:xlink="http://www.w3.org/1999/xlink" xml:space="preserve" xmlns:serif="http://www.serif.com/" style="fill-rule:evenodd;clip-rule:evenodd;stroke-linejoin:round;stroke-miterlimit:2;">
    <g transform="matrix(1,0,0,1,-700,-300)">
        <g transform="matrix(-10.1636,-1.24469e-15,1.24469e-15,-10.1636,756.948,402.109)">
            <g id="ws-4">
                <path id="fish" d="M0,0.092C0,-0.238 0.267,-0.506 0.598,-0.506C0.927,-0.506 1.195,-0.238 1.195,0.092C1.195,0.422 0.927,0.69 0.598,0.69C0.267,0.69 0,0.422 0,0.092M-11.442,-1.15L-11.442,-1.088C-11.442,-1.037 -11.42,-0.992 -11.408,-0.945C-11.275,-0.465 -10.779,-0.016 -10.771,0.305C-10.756,0.912 -11.504,1.256 -11.586,1.625C-11.586,1.625 -11.667,1.904 -11.559,2.025C-11.499,2.092 -11.42,2.102 -11.337,2.094C-9.921,1.954 -8.259,1.047 -7.839,1.24C-7.419,1.433 -5.796,3.438 -2.936,3.63C-1.327,3.738 1.139,3.412 2.135,2.096C2.368,1.819 2.579,1.517 2.783,1.224C2.876,1.09 2.97,0.957 3.065,0.825C3.225,0.596 3.097,0.387 3.056,0.337C2.902,0.146 2.75,-0.056 2.602,-0.253C2.27,-0.693 1.927,-1.148 1.529,-1.524C-0.167,-3.129 -2.469,-3.646 -4.806,-2.897C-5.842,-2.565 -7.774,-0.907 -7.775,-0.907C-8.289,-0.579 -10.235,-1.284 -11.139,-1.405C-11.214,-1.415 -11.286,-1.421 -11.346,-1.37C-11.406,-1.32 -11.442,-1.237 -11.442,-1.15" style="fill:rgb(0,121,159);fill-rule:nonzero;"/>
            </g>
        </g>
    </g>
</svg>
