<?xml version="1.0" encoding="UTF-8" standalone="no"?>
<!DOCTYPE svg PUBLIC "-//W3C//DTD SVG 1.1//EN" "http://www.w3.org/Graphics/SVG/1.1/DTD/svg11.dtd">
<svg width="100" height="100" viewBox="0 0 200 200" version="1.1" xmlns="http://www.w3.org/2000/svg" xmlns:xlink="http://www.w3.org/1999/xlink" xml:space="preserve" xmlns:serif="http://www.serif.com/" style="fill-rule:evenodd;clip-rule:evenodd;stroke-linejoin:round;stroke-miterlimit:2;">
    <g transform="matrix(1,0,0,1,-300,-300)">
        <g transform="matrix(8.59167,0,0,8.59167,432.85,422.626)">
            <g id="ws-3">
                <path id="berries" d="M0,-5.356C-0.427,-5.356 -0.825,-5.247 -1.184,-5.07L-1.487,-6.86C-1.18,-7.11 -0.839,-7.331 -0.47,-7.508C0.341,-7.901 1.273,-8.154 2.148,-8.241L2.17,-8.243C2.227,-8.249 2.283,-8.262 2.338,-8.282C2.695,-8.415 2.877,-8.811 2.745,-9.168C2.612,-9.524 2.216,-9.706 1.859,-9.574C0.872,-9.208 -0.018,-8.809 -0.897,-8.288C-1.327,-8.022 -1.751,-7.73 -2.127,-7.365C-2.478,-7.028 -2.813,-6.676 -3.154,-6.309C-3.37,-6.078 -3.566,-5.826 -3.752,-5.566C-3.756,-5.566 -3.759,-5.568 -3.763,-5.568L-5.106,-5.582C-5.308,-6.864 -6.41,-7.847 -7.749,-7.847C-9.233,-7.847 -10.435,-6.645 -10.435,-5.162C-10.435,-3.679 -9.233,-2.476 -7.749,-2.476C-6.304,-2.476 -5.134,-3.62 -5.074,-5.051L-4.184,-4.886C-4.394,-4.515 -4.579,-4.131 -4.719,-3.739C-4.942,-3.129 -5.117,-2.511 -5.27,-1.883C-6.879,-1.753 -8.148,-0.421 -8.148,1.221C-8.148,2.949 -6.748,4.35 -5.019,4.35C-3.291,4.35 -1.89,2.949 -1.89,1.221C-1.89,-0.297 -2.973,-1.562 -4.408,-1.846C-4.278,-2.39 -4.122,-2.933 -3.938,-3.457C-3.647,-4.336 -3.233,-5.136 -2.609,-5.816C-2.452,-5.994 -2.279,-6.162 -2.1,-6.327L-1.724,-4.714C-2.307,-4.221 -2.686,-3.493 -2.686,-2.67C-2.686,-1.187 -1.483,0.016 0,0.016C1.484,0.016 2.686,-1.187 2.686,-2.67C2.686,-4.153 1.484,-5.356 0,-5.356" style="fill:rgb(152,21,49);fill-rule:nonzero;"/>
            </g>
        </g>
    </g>
</svg>
