<?xml version="1.0" encoding="UTF-8" standalone="no"?>
<!DOCTYPE svg PUBLIC "-//W3C//DTD SVG 1.1//EN" "http://www.w3.org/Graphics/SVG/1.1/DTD/svg11.dtd">
<svg width="100" height="100" viewBox="0 0 200 200" version="1.1" xmlns="http://www.w3.org/2000/svg" xmlns:xlink="http://www.w3.org/1999/xlink" xml:space="preserve" xmlns:serif="http://www.serif.com/" style="fill-rule:evenodd;clip-rule:evenodd;stroke-linejoin:round;stroke-miterlimit:2;">
    <g transform="matrix(1,0,0,1,-500,-300)">
        <g transform="matrix(9.09451,0,0,9.09451,670.98,392.954)">
            <g id="ws-5">
                <path id="mouse" d="M0,0.136C-0.705,-0.412 -2.127,-0.236 -2.867,-0.095C-2.803,-2.905 -7.442,-5.024 -10.299,-2.45L-11.797,-2.233C-11.131,-3.613 -12.9,-3.994 -13.312,-2.346L-15.426,-0.406C-16.451,0.4 -16.105,1.031 -15.189,1.031C-14.876,1.031 -11.897,1.617 -11.472,2.094C-11.535,2.206 -11.852,2.384 -11.773,2.995L-5.978,3.179C-4.286,2.679 -3.368,1.772 -3.023,0.768C-2.195,0.57 -0.921,0.449 -0.497,0.777C-0.434,0.826 -0.369,0.899 -0.369,1.063C-0.369,1.549 -0.767,1.699 -1.744,1.949C-2.445,2.129 -3.24,2.332 -3.749,2.912C-4.156,3.376 -4.309,3.827 -4.202,4.25C-4.05,4.859 -3.429,5.107 -3.359,5.134C-3.312,5.152 -3.264,5.16 -3.216,5.16C-3.052,5.16 -2.897,5.059 -2.837,4.896C-2.758,4.687 -2.864,4.452 -3.074,4.374C-3.131,4.352 -3.371,4.228 -3.415,4.053C-3.452,3.907 -3.354,3.692 -3.139,3.447C-2.796,3.057 -2.159,2.893 -1.542,2.735C-0.658,2.509 0.442,2.227 0.442,1.063C0.442,0.681 0.289,0.36 0,0.136" style="fill:rgb(116,100,91);fill-rule:nonzero;"/>
            </g>
        </g>
    </g>
</svg>
