<?xml version="1.0" encoding="UTF-8" standalone="no"?>
<!DOCTYPE svg PUBLIC "-//W3C//DTD SVG 1.1//EN" "http://www.w3.org/Graphics/SVG/1.1/DTD/svg11.dtd">
<svg width="50" height="50" viewBox="0 0 50 50" xmlns="http://www.w3.org/2000/svg">
<!-- <rect width="50" height="50" x="0" y="0" fill="#00000000" /> -->
<path d="M 25,25 L 50,25 A 25,25 0 0 1 32.72542485937369,48.77641290737884 Z" fill="red" />
<path d="M 25,25 L 32.72542485937369,48.77641290737884 A 25,25 0 0 1 4.774575140626318,39.69463130731183 Z" fill="yellow" />
<path d="M 25,25 L 4.774575140626318,39.69463130731183 A 25,25 0 0 1 4.774575140626311,10.305368692688175 Z" fill="blue" />
<path d="M 25,25 L 4.774575140626311,10.305368692688175 A 25,25 0 0 1 32.72542485937368,1.223587092621159 Z" fill="orange" />
<path d="M 25,25 L 32.72542485937368,1.223587092621159 A 25,25 0 0 1 50,24.999999999999993 Z" fill="green" />
</svg>