<?xml version="1.0" encoding="UTF-8" standalone="no"?>
<!DOCTYPE svg PUBLIC "-//W3C//DTD SVG 1.1//EN" "http://www.w3.org/Graphics/SVG/1.1/DTD/svg11.dtd">
<svg width="100" height="100" viewBox="0 0 200 200" version="1.1" xmlns="http://www.w3.org/2000/svg" xmlns:xlink="http://www.w3.org/1999/xlink" xml:space="preserve" xmlns:serif="http://www.serif.com/" style="fill-rule:evenodd;clip-rule:evenodd;stroke-linejoin:round;stroke-miterlimit:2;">
    <g transform="matrix(1,0,0,1,-300,-500)">
        <g transform="matrix(7.70232,0,0,7.70232,-3403,-873.691)">
            <g id="ws-6">
                <g id="wheat">
                    <g transform="matrix(1,0,0,1,487.796,189.11)">
                        <path d="M0,-2.293C0.445,-1.498 1.102,-0.729 1.282,-0.522C1.462,-0.316 3.41,-0.035 4.113,0.01C3.948,-0.403 3.671,-0.749 3.079,-1.281C2.586,-1.724 2.109,-1.963 1.47,-2.084C1.11,-2.152 0.279,-2.303 0,-2.293" style="fill:rgb(195,116,45);fill-rule:nonzero;"/>
                    </g>
                    <g transform="matrix(0.807192,0.590289,0.590289,-0.807192,489.51,186.325)">
                        <path d="M0.599,0.015C0.869,0.113 1.467,0.126 1.68,0.173C1.017,0.749 0.85,1.614 0.599,1.67C0.348,1.727 -0.747,1.767 -1.127,1.674C-1.066,1.536 -0.423,0.405 0.599,0.015" style="fill:rgb(195,116,45);fill-rule:nonzero;"/>
                    </g>
                    <g transform="matrix(1,0,0,1,493.462,188.018)">
                        <path d="M0,-0.85C-0.107,-1.338 -1.235,-2.168 -1.841,-2.459C-1.935,-2.155 -2.079,-1.594 -2.053,-1.056C-2.024,-0.467 -1.76,0.211 -1.407,0.615C-1.055,1.019 -0.183,1.515 0.13,1.609C0.128,1.597 0.126,1.586 0.124,1.574C-0.042,0.499 0.107,-0.361 0,-0.85" style="fill:rgb(195,116,45);fill-rule:nonzero;"/>
                    </g>
                    <g transform="matrix(1,0,0,1,493.524,194.883)">
                        <path d="M0,-2.513C-1.031,-2.522 -1.653,-2.448 -2.565,-2.524C-2.161,-1.814 -1.315,-0.599 -0.557,-0.253C0.201,0.094 1.4,-0.3 2.482,-0.291C2.697,-0.289 3.439,-0.2 3.657,-0.152C3.551,-0.509 3.087,-1.833 2.6,-2.147C1.889,-2.607 1.577,-2.5 0,-2.513" style="fill:rgb(195,116,45);fill-rule:nonzero;"/>
                    </g>
                    <g transform="matrix(1,0,0,1,496.22,189.606)">
                        <path d="M0,-0.012C-0.375,-1.259 -1.609,-2.115 -2.317,-2.551C-2.342,-1.879 -2.343,-1.374 -2.21,-0.514C-2.049,0.535 -1.946,0.574 -1.451,1.053C-1.175,1.319 -0.283,2.43 0.145,2.539C0.145,2.539 0.144,0.467 0,-0.012" style="fill:rgb(195,116,45);fill-rule:nonzero;"/>
                    </g>
                    <g transform="matrix(-0.506442,0.862274,0.862274,0.506442,497.305,197.132)">
                        <path d="M-1.454,-1.812C-0.793,-3.066 -0.232,-3.44 0.202,-4.508C0.816,-2.36 0.396,0.388 -1.454,1.136C-1.693,1.232 -0.925,0.982 -1.454,1.136C-1.409,0.584 -2.027,-0.726 -1.454,-1.812" style="fill:rgb(195,116,45);fill-rule:nonzero;"/>
                    </g>
                    <g transform="matrix(1,0,0,1,496.942,193.86)">
                        <path d="M0,-2.164C-0.197,-0.955 0.514,0.481 0.88,0.901C1.246,1.32 1.926,2.192 2.218,2.336C3.808,0.963 1.265,-2.639 0.213,-3.845C0.017,-4.069 -0.193,-4.287 -0.415,-4.5C-0.415,-4.5 -0.002,-3.337 0,-2.164" style="fill:rgb(195,116,45);fill-rule:nonzero;"/>
                    </g>
                    <g transform="matrix(0.658061,-0.752964,-0.752964,-0.658061,489.682,185.285)">
                        <path d="M-1.083,-0.492C-0.929,-0.19 -0.7,0.149 -0.362,0.372C-0.023,0.597 -1.083,2.385 -1.083,2.385C-1.083,2.385 -1.281,0.976 -1.678,0.238C-1.494,0.048 -1.282,-0.197 -1.083,-0.492" style="fill:rgb(195,116,45);fill-rule:nonzero;"/>
                    </g>
                    <g transform="matrix(1,0,0,1,493.645,189.424)">
                        <path d="M0,2.503C0.135,2.509 1.42,2.539 1.55,2.55C1.235,2.005 0.612,1.245 0.031,0.771C-0.532,0.313 -1.45,0.27 -2.369,0.204C-2.97,0.161 -3.964,-0.039 -4.563,-0.047C-4.309,0.6 -3.575,1.878 -3.04,2.181C-2.504,2.485 -1.165,2.457 0,2.503" style="fill:rgb(195,116,45);fill-rule:nonzero;"/>
                    </g>
                    <g transform="matrix(1,0,0,1,498.162,197.672)">
                        <path d="M0,-0.974C0.138,-0.91 0.295,-0.809 0.427,-0.701C0.564,-0.594 0.684,-0.467 0.803,-0.344C0.906,-0.218 0.995,-0.088 1.06,0.052C1.119,0.181 1.236,0.44 1.251,0.547L2.018,-0.089C1.867,-0.346 1.481,-0.74 1.316,-0.866C0.983,-1.134 0.56,-1.408 0.317,-1.521L0,-0.974Z" style="fill:rgb(195,116,45);fill-rule:nonzero;"/>
                    </g>
                </g>
            </g>
        </g>
    </g>
</svg>
