<?xml version="1.0" encoding="UTF-8" standalone="no"?>
<!DOCTYPE svg PUBLIC "-//W3C//DTD SVG 1.1//EN" "http://www.w3.org/Graphics/SVG/1.1/DTD/svg11.dtd">
<svg width="100" height="100" viewBox="0 0 200 200" version="1.1" xmlns="http://www.w3.org/2000/svg" xmlns:xlink="http://www.w3.org/1999/xlink" xml:space="preserve" xmlns:serif="http://www.serif.com/" style="fill-rule:evenodd;clip-rule:evenodd;stroke-linejoin:round;stroke-miterlimit:2;">
    <g transform="matrix(1,0,0,1,-344,-152)">
        <g transform="matrix(7.14802,0,0,7.14802,-2977.16,-1174.38)">
            <g id="ws-1">
                <g id="worm">
                    <g transform="matrix(1,0,0,1,467.653,195.772)">
                        <path d="M0,-8.535C-0.018,-8.351 -0.038,-8.047 -0.036,-7.798C-0.033,-7.536 -0.021,-7.275 0.007,-7.021C0.06,-6.511 0.179,-6.031 0.35,-5.619C0.432,-5.41 0.538,-5.226 0.648,-5.059C0.75,-4.905 0.789,-4.895 0.869,-4.838C1.013,-4.757 1.318,-4.665 1.782,-4.653C2.239,-4.635 2.789,-4.679 3.406,-4.729C3.718,-4.754 4.049,-4.779 4.42,-4.788C4.792,-4.794 5.204,-4.792 5.732,-4.686C6.694,-4.473 7.445,-4.057 8.093,-3.608C8.416,-3.38 8.716,-3.139 8.999,-2.886C9.14,-2.758 9.278,-2.629 9.413,-2.493C9.556,-2.348 9.664,-2.238 9.84,-2.031L9.993,-1.85C10.704,-1.01 10.599,0.248 9.758,0.959C8.918,1.67 7.66,1.564 6.95,0.724C6.866,0.626 6.79,0.513 6.729,0.404C6.711,0.373 6.616,0.251 6.548,0.17C6.473,0.08 6.394,-0.009 6.313,-0.096C6.152,-0.269 5.983,-0.43 5.815,-0.575C5.479,-0.863 5.134,-1.063 4.895,-1.148C4.821,-1.18 4.615,-1.217 4.37,-1.231C4.125,-1.248 3.839,-1.252 3.535,-1.254C2.922,-1.259 2.237,-1.25 1.464,-1.348C0.709,-1.447 -0.233,-1.666 -1.075,-2.345C-1.479,-2.669 -1.84,-3.145 -2.029,-3.534C-2.22,-3.903 -2.374,-4.283 -2.48,-4.66C-2.701,-5.417 -2.79,-6.164 -2.792,-6.886C-2.795,-7.247 -2.774,-7.603 -2.74,-7.957C-2.701,-8.323 -2.657,-8.633 -2.563,-9.056C-2.408,-9.76 -1.711,-10.205 -1.007,-10.049C-0.355,-9.906 0.075,-9.297 0.011,-8.649L0,-8.535Z" style="fill:rgb(0,95,82);fill-rule:nonzero;"/>
                    </g>
                    <g transform="matrix(-0.516885,-0.856055,-0.856055,0.516885,474.654,198.339)">
                        <path d="M-0.369,-0.653C-0.561,-0.652 -0.716,-0.461 -0.716,-0.223C-0.716,0.015 -0.561,0.208 -0.369,0.208C-0.177,0.208 -0.021,0.016 -0.021,-0.223C-0.021,-0.46 -0.177,-0.653 -0.369,-0.653" style="fill:rgb(0,95,82);fill-rule:nonzero;"/>
                    </g>
                    <g transform="matrix(1,0,0,1,474.892,196.692)">
                        <path d="M0,1.752C0.014,1.561 0.041,1.419 0.072,1.26C0.114,1.108 0.14,0.954 0.209,0.811C0.272,0.66 0.356,0.52 0.439,0.401C0.515,0.27 0.593,0.149 0.661,0L1.046,0.377C0.917,0.433 0.806,0.524 0.705,0.613C0.614,0.715 0.525,0.806 0.489,0.922C0.451,1.042 0.417,1.168 0.427,1.297C0.431,1.42 0.458,1.564 0.518,1.653L0,1.752Z" style="fill:rgb(0,95,82);fill-rule:nonzero;"/>
                    </g>
                    <g transform="matrix(0.516885,0.856055,0.856055,-0.516885,479.321,195.111)">
                        <path d="M0.369,-0.208C0.561,-0.208 0.716,-0.015 0.716,0.222C0.716,0.461 0.56,0.653 0.369,0.653C0.176,0.653 0.021,0.46 0.021,0.222C0.021,-0.016 0.177,-0.208 0.369,-0.208" style="fill:rgb(0,95,82);fill-rule:nonzero;"/>
                    </g>
                    <g transform="matrix(1,0,0,1,479.355,194.874)">
                        <path d="M0,0.679C-0.051,0.585 -0.166,0.495 -0.273,0.434C-0.382,0.364 -0.51,0.336 -0.633,0.314C-0.753,0.293 -0.874,0.329 -1.008,0.362C-1.134,0.41 -1.266,0.465 -1.375,0.554L-1.53,0.038C-1.367,0.047 -1.223,0.034 -1.072,0.028C-0.927,0.01 -0.764,0 -0.602,0.015C-0.443,0.02 -0.295,0.069 -0.14,0.102C0.015,0.148 0.152,0.191 0.329,0.267L0,0.679Z" style="fill:rgb(0,95,82);fill-rule:nonzero;"/>
                    </g>
                </g>
            </g>
        </g>
    </g>
</svg>
